<mxfile host="app.diagrams.net" agent="Mozilla/5.0 (Windows NT 10.0; Win64; x64; rv:134.0) Gecko/20100101 Firefox/134.0" version="26.0.11">
  <diagram name="Page-1" id="ZMt-QuAADszw-6E3zNXs">
    <mxGraphModel dx="2074" dy="1148" grid="1" gridSize="10" guides="1" tooltips="1" connect="1" arrows="1" fold="1" page="1" pageScale="1" pageWidth="1169" pageHeight="827" math="0" shadow="0">
      <root>
        <mxCell id="0" />
        <mxCell id="1" parent="0" />
        <mxCell id="g3wcJmQuHbT3FWYZlj8O-4" value="WaveLength Zone" style="sketch=0;outlineConnect=0;gradientColor=none;html=1;whiteSpace=wrap;fontSize=12;fontStyle=0;shape=mxgraph.aws4.group;grIcon=mxgraph.aws4.group_availability_zone;strokeColor=#545B64;fillColor=none;verticalAlign=top;align=left;spacingLeft=30;fontColor=#545B64;dashed=1;" vertex="1" parent="1">
          <mxGeometry x="400" y="170" width="260" height="310" as="geometry" />
        </mxCell>
        <mxCell id="g3wcJmQuHbT3FWYZlj8O-1" value="Region" style="points=[[0,0],[0.25,0],[0.5,0],[0.75,0],[1,0],[1,0.25],[1,0.5],[1,0.75],[1,1],[0.75,1],[0.5,1],[0.25,1],[0,1],[0,0.75],[0,0.5],[0,0.25]];outlineConnect=0;gradientColor=none;html=1;whiteSpace=wrap;fontSize=12;fontStyle=0;container=1;pointerEvents=0;collapsible=0;recursiveResize=0;shape=mxgraph.aws4.group;grIcon=mxgraph.aws4.group_region;strokeColor=#00A4A6;fillColor=none;verticalAlign=top;align=left;spacingLeft=30;fontColor=#147EBA;dashed=1;" vertex="1" parent="1">
          <mxGeometry x="160" y="160" width="510" height="570" as="geometry" />
        </mxCell>
        <mxCell id="g3wcJmQuHbT3FWYZlj8O-8" value="VPC" style="points=[[0,0],[0.25,0],[0.5,0],[0.75,0],[1,0],[1,0.25],[1,0.5],[1,0.75],[1,1],[0.75,1],[0.5,1],[0.25,1],[0,1],[0,0.75],[0,0.5],[0,0.25]];outlineConnect=0;gradientColor=none;html=1;whiteSpace=wrap;fontSize=12;fontStyle=0;container=1;pointerEvents=0;collapsible=0;recursiveResize=0;shape=mxgraph.aws4.group;grIcon=mxgraph.aws4.group_vpc2;strokeColor=#8C4FFF;fillColor=none;verticalAlign=top;align=left;spacingLeft=30;fontColor=#AAB7B8;dashed=0;" vertex="1" parent="g3wcJmQuHbT3FWYZlj8O-1">
          <mxGeometry x="260" y="40" width="230" height="120" as="geometry" />
        </mxCell>
        <mxCell id="g3wcJmQuHbT3FWYZlj8O-7" value="VPC" style="points=[[0,0],[0.25,0],[0.5,0],[0.75,0],[1,0],[1,0.25],[1,0.5],[1,0.75],[1,1],[0.75,1],[0.5,1],[0.25,1],[0,1],[0,0.75],[0,0.5],[0,0.25]];outlineConnect=0;gradientColor=none;html=1;whiteSpace=wrap;fontSize=12;fontStyle=0;container=1;pointerEvents=0;collapsible=0;recursiveResize=0;shape=mxgraph.aws4.group;grIcon=mxgraph.aws4.group_vpc2;strokeColor=#8C4FFF;fillColor=none;verticalAlign=top;align=left;spacingLeft=30;fontColor=#AAB7B8;dashed=0;" vertex="1" parent="g3wcJmQuHbT3FWYZlj8O-1">
          <mxGeometry x="260" y="170" width="230" height="140" as="geometry" />
        </mxCell>
        <mxCell id="g3wcJmQuHbT3FWYZlj8O-6" value="Subnet" style="sketch=0;outlineConnect=0;gradientColor=none;html=1;whiteSpace=wrap;fontSize=12;fontStyle=0;shape=mxgraph.aws4.group;grIcon=mxgraph.aws4.group_subnet;strokeColor=#879196;fillColor=none;verticalAlign=top;align=left;spacingLeft=30;fontColor=#879196;dashed=0;" vertex="1" parent="g3wcJmQuHbT3FWYZlj8O-7">
          <mxGeometry x="10" y="30" width="210" height="100" as="geometry" />
        </mxCell>
        <mxCell id="g3wcJmQuHbT3FWYZlj8O-11" value="&lt;div&gt;IPSec&lt;/div&gt;&lt;div&gt;Instance&lt;br&gt;&lt;/div&gt;" style="sketch=0;points=[[0,0,0],[0.25,0,0],[0.5,0,0],[0.75,0,0],[1,0,0],[0,1,0],[0.25,1,0],[0.5,1,0],[0.75,1,0],[1,1,0],[0,0.25,0],[0,0.5,0],[0,0.75,0],[1,0.25,0],[1,0.5,0],[1,0.75,0]];outlineConnect=0;fontColor=#232F3E;fillColor=#ED7100;strokeColor=#ffffff;dashed=0;verticalLabelPosition=bottom;verticalAlign=top;align=center;html=1;fontSize=12;fontStyle=0;aspect=fixed;shape=mxgraph.aws4.resourceIcon;resIcon=mxgraph.aws4.ec2;" vertex="1" parent="g3wcJmQuHbT3FWYZlj8O-7">
          <mxGeometry x="110" y="40" width="50" height="50" as="geometry" />
        </mxCell>
        <mxCell id="g3wcJmQuHbT3FWYZlj8O-9" value="Subnet" style="sketch=0;outlineConnect=0;gradientColor=none;html=1;whiteSpace=wrap;fontSize=12;fontStyle=0;shape=mxgraph.aws4.group;grIcon=mxgraph.aws4.group_subnet;strokeColor=#879196;fillColor=none;verticalAlign=top;align=left;spacingLeft=30;fontColor=#879196;dashed=0;" vertex="1" parent="g3wcJmQuHbT3FWYZlj8O-1">
          <mxGeometry x="270" y="70" width="210" height="80" as="geometry" />
        </mxCell>
        <mxCell id="g3wcJmQuHbT3FWYZlj8O-12" value="Cross ENI" style="outlineConnect=0;dashed=0;verticalLabelPosition=bottom;verticalAlign=top;align=center;html=1;shape=mxgraph.aws3.elastic_network_interface;fillColor=#F58534;gradientColor=none;" vertex="1" parent="g3wcJmQuHbT3FWYZlj8O-1">
          <mxGeometry x="375.25" y="80" width="39.5" height="42" as="geometry" />
        </mxCell>
        <mxCell id="g3wcJmQuHbT3FWYZlj8O-14" style="edgeStyle=orthogonalEdgeStyle;rounded=0;orthogonalLoop=1;jettySize=auto;html=1;" edge="1" parent="g3wcJmQuHbT3FWYZlj8O-1" source="g3wcJmQuHbT3FWYZlj8O-11" target="g3wcJmQuHbT3FWYZlj8O-12">
          <mxGeometry relative="1" as="geometry" />
        </mxCell>
        <mxCell id="g3wcJmQuHbT3FWYZlj8O-2" value="AWS Cloud" style="points=[[0,0],[0.25,0],[0.5,0],[0.75,0],[1,0],[1,0.25],[1,0.5],[1,0.75],[1,1],[0.75,1],[0.5,1],[0.25,1],[0,1],[0,0.75],[0,0.5],[0,0.25]];outlineConnect=0;gradientColor=none;html=1;whiteSpace=wrap;fontSize=12;fontStyle=0;container=0;pointerEvents=0;collapsible=0;recursiveResize=0;shape=mxgraph.aws4.group;grIcon=mxgraph.aws4.group_aws_cloud_alt;strokeColor=#232F3E;fillColor=none;verticalAlign=top;align=left;spacingLeft=30;fontColor=#232F3E;dashed=0;" vertex="1" parent="1">
          <mxGeometry x="120" y="130" width="560" height="610" as="geometry" />
        </mxCell>
        <mxCell id="g3wcJmQuHbT3FWYZlj8O-10" value="&lt;div&gt;Carrier&lt;/div&gt;&lt;div&gt;Gateway&lt;br&gt;&lt;/div&gt;" style="sketch=0;outlineConnect=0;fontColor=#232F3E;gradientColor=none;fillColor=#8C4FFF;strokeColor=none;dashed=0;verticalLabelPosition=bottom;verticalAlign=top;align=center;html=1;fontSize=12;fontStyle=0;aspect=fixed;pointerEvents=1;shape=mxgraph.aws4.customer_gateway;" vertex="1" parent="1">
          <mxGeometry x="640" y="370" width="50" height="50" as="geometry" />
        </mxCell>
        <mxCell id="g3wcJmQuHbT3FWYZlj8O-27" value="Availability zone (OnPrem Simulation)" style="sketch=0;outlineConnect=0;gradientColor=none;html=1;whiteSpace=wrap;fontSize=12;fontStyle=0;shape=mxgraph.aws4.group;grIcon=mxgraph.aws4.group_availability_zone;strokeColor=#545B64;fillColor=none;verticalAlign=top;align=left;spacingLeft=30;fontColor=#545B64;dashed=1;" vertex="1" parent="1">
          <mxGeometry x="200" y="560" width="460" height="150" as="geometry" />
        </mxCell>
        <mxCell id="g3wcJmQuHbT3FWYZlj8O-19" value="VPC" style="points=[[0,0],[0.25,0],[0.5,0],[0.75,0],[1,0],[1,0.25],[1,0.5],[1,0.75],[1,1],[0.75,1],[0.5,1],[0.25,1],[0,1],[0,0.75],[0,0.5],[0,0.25]];outlineConnect=0;gradientColor=none;html=1;whiteSpace=wrap;fontSize=12;fontStyle=0;container=1;pointerEvents=0;collapsible=0;recursiveResize=0;shape=mxgraph.aws4.group;grIcon=mxgraph.aws4.group_vpc2;strokeColor=#8C4FFF;fillColor=none;verticalAlign=top;align=left;spacingLeft=30;fontColor=#AAB7B8;dashed=0;" vertex="1" parent="1">
          <mxGeometry x="460" y="580" width="190" height="110" as="geometry" />
        </mxCell>
        <mxCell id="g3wcJmQuHbT3FWYZlj8O-21" value="&lt;div&gt;IPSec&lt;/div&gt;&lt;div&gt;Instance&lt;br&gt;&lt;/div&gt;" style="sketch=0;points=[[0,0,0],[0.25,0,0],[0.5,0,0],[0.75,0,0],[1,0,0],[0,1,0],[0.25,1,0],[0.5,1,0],[0.75,1,0],[1,1,0],[0,0.25,0],[0,0.5,0],[0,0.75,0],[1,0.25,0],[1,0.5,0],[1,0.75,0]];outlineConnect=0;fontColor=#232F3E;fillColor=#ED7100;strokeColor=#ffffff;dashed=0;verticalLabelPosition=bottom;verticalAlign=top;align=center;html=1;fontSize=12;fontStyle=0;aspect=fixed;shape=mxgraph.aws4.resourceIcon;resIcon=mxgraph.aws4.ec2;" vertex="1" parent="g3wcJmQuHbT3FWYZlj8O-19">
          <mxGeometry x="70" y="20" width="50" height="50" as="geometry" />
        </mxCell>
        <mxCell id="g3wcJmQuHbT3FWYZlj8O-29" value="&lt;div&gt;Internet&lt;/div&gt;&lt;div&gt;Gateway&lt;br&gt;&lt;/div&gt;" style="sketch=0;outlineConnect=0;fontColor=#232F3E;gradientColor=none;fillColor=#8C4FFF;strokeColor=none;dashed=0;verticalLabelPosition=bottom;verticalAlign=top;align=center;html=1;fontSize=12;fontStyle=0;aspect=fixed;pointerEvents=1;shape=mxgraph.aws4.internet_gateway;" vertex="1" parent="1">
          <mxGeometry x="640" y="590" width="50" height="50" as="geometry" />
        </mxCell>
        <mxCell id="g3wcJmQuHbT3FWYZlj8O-30" value="" style="image;aspect=fixed;perimeter=ellipsePerimeter;html=1;align=center;shadow=0;dashed=0;spacingTop=3;image=img/lib/active_directory/internet_cloud.svg;" vertex="1" parent="1">
          <mxGeometry x="730" y="414" width="333.33" height="210" as="geometry" />
        </mxCell>
        <mxCell id="g3wcJmQuHbT3FWYZlj8O-31" value="" style="curved=1;endArrow=classic;html=1;rounded=0;startArrow=classic;startFill=1;strokeWidth=5;fillColor=#f8cecc;strokeColor=#FF0000;" edge="1" parent="1" source="g3wcJmQuHbT3FWYZlj8O-21" target="g3wcJmQuHbT3FWYZlj8O-11">
          <mxGeometry width="50" height="50" relative="1" as="geometry">
            <mxPoint x="800" y="720" as="sourcePoint" />
            <mxPoint x="850" y="670" as="targetPoint" />
            <Array as="points">
              <mxPoint x="750" y="620" />
              <mxPoint x="820" y="590" />
              <mxPoint x="810" y="370" />
            </Array>
          </mxGeometry>
        </mxCell>
        <mxCell id="g3wcJmQuHbT3FWYZlj8O-32" value="&lt;div&gt;&lt;b&gt;IPSEC&lt;/b&gt;&lt;/div&gt;&lt;div&gt;&lt;b&gt;+&lt;/b&gt;&lt;/div&gt;&lt;div&gt;&lt;b&gt;BGP&lt;br&gt;&lt;/b&gt;&lt;/div&gt;" style="text;html=1;align=center;verticalAlign=middle;whiteSpace=wrap;rounded=0;fillColor=default;gradientColor=none;fillStyle=solid;" vertex="1" parent="1">
          <mxGeometry x="780" y="480" width="70" height="56" as="geometry" />
        </mxCell>
      </root>
    </mxGraphModel>
  </diagram>
</mxfile>
